<?xml version="1.0" encoding="UTF-8"?> <svg xmlns="http://www.w3.org/2000/svg" width="263" height="56" viewBox="0 0 263 56" fill="none"> <path d="M0.744141 44.2943H1.95268V55.8127H0.744141V44.2943Z" fill="white"></path> <path d="M14.9675 48.0401C15.6183 48.6956 15.8972 49.6321 15.8972 50.7558V55.8127H14.7816V50.9431C14.7816 50.0067 14.5957 49.3511 14.1309 48.8829C13.666 48.4147 13.0153 48.1338 12.1786 48.1338C11.2489 48.1338 10.5052 48.4147 9.9474 48.9766C9.38961 49.5384 9.11072 50.2876 9.11072 51.2241V55.719H7.99512V47.1037H9.11072V48.6956C9.38961 48.1338 9.85444 47.7592 10.4122 47.4782C10.97 47.1973 11.6208 47.01 12.3645 47.01C13.4801 47.01 14.3168 47.3846 14.9675 48.0401Z" fill="white"></path> <path d="M26.2172 55.2509C26.0313 55.4382 25.7524 55.6255 25.3805 55.7191C25.1016 55.8127 24.7298 55.9064 24.3579 55.9064C23.5212 55.9064 22.9634 55.7191 22.4986 55.2509C22.0338 54.7826 21.8478 54.2208 21.8478 53.378V48.1338H20.3604V47.1037H21.8478V45.2308H22.9634V47.1037H25.5664V48.1338H22.9634V53.2843C22.9634 53.8462 23.0564 54.2208 23.3353 54.5017C23.6142 54.7826 23.986 54.8763 24.4509 54.8763C24.7298 54.8763 24.9157 54.8763 25.1016 54.7826C25.2875 54.689 25.4735 54.5954 25.6594 54.4081L26.2172 55.2509Z" fill="white"></path> <path d="M38.1157 51.7859H30.9574C31.0504 52.7224 31.3292 53.3779 31.98 53.9398C32.6308 54.5016 33.3745 54.7826 34.3041 54.7826C34.8619 54.7826 35.3268 54.6889 35.7916 54.5017C36.2564 54.3144 36.6283 54.0334 36.9072 53.6588L37.5579 54.408C37.1861 54.8762 36.7212 55.2508 36.1635 55.4381C35.6057 55.719 34.9549 55.8127 34.3041 55.8127C33.4674 55.8127 32.6308 55.6254 31.98 55.2508C31.3292 54.8762 30.7715 54.3144 30.3996 53.6588C30.0277 53.0033 29.8418 52.2542 29.8418 51.4113C29.8418 50.5685 30.0277 49.8194 30.3996 49.1639C30.7715 48.5083 31.2363 47.9465 31.8871 47.5719C32.5378 47.1973 33.2815 47.01 34.0253 47.01C34.769 47.01 35.5127 47.1973 36.1635 47.5719C36.8142 47.9465 37.279 48.5083 37.6509 49.1639C38.0228 49.8194 38.2087 50.5685 38.2087 51.4113L38.1157 51.7859ZM31.8871 48.8829C31.3293 49.4448 31.0504 50.1003 30.9574 50.9431H37.0002C36.9072 50.1003 36.6283 49.3511 36.0705 48.8829C35.5127 48.321 34.769 48.0401 33.9323 48.0401C33.0956 48.0401 32.4448 48.321 31.8871 48.8829Z" fill="white"></path> <path d="M45.4609 47.4782C46.0187 47.1973 46.6694 47.01 47.4131 47.01V48.1338H47.1343C46.2046 48.1338 45.5538 48.4147 44.996 48.9766C44.4382 49.5384 44.2523 50.2876 44.2523 51.3177V55.719H43.1367V47.1037H44.2523V48.7893C44.5312 48.2274 44.9031 47.7592 45.4609 47.4782Z" fill="white"></path> <path d="M59.1267 48.0401C59.7775 48.6956 60.0564 49.6321 60.0564 50.7558V55.8127H58.9408V50.9431C58.9408 50.0067 58.7548 49.3511 58.29 48.8829C57.8252 48.4147 57.1744 48.1338 56.3378 48.1338C55.4081 48.1338 54.6643 48.4147 54.1066 48.9766C53.5488 49.5384 53.2699 50.2876 53.2699 51.2241V55.719H52.1543V47.1037H53.2699V48.6956C53.5488 48.1338 54.0136 47.7592 54.5714 47.4782C55.1292 47.1973 55.78 47.01 56.5237 47.01C57.6393 47.01 58.476 47.3846 59.1267 48.0401Z" fill="white"></path> <path d="M73.3511 51.7859H66.1927C66.2857 52.7224 66.5646 53.3779 67.2153 53.9398C67.8661 54.5016 68.6098 54.7826 69.5395 54.7826C70.0973 54.7826 70.5621 54.6889 71.0269 54.5017C71.4917 54.3144 71.8636 54.0334 72.1425 53.6588L72.7933 54.408C72.4214 54.8762 71.9566 55.2508 71.3988 55.4381C70.841 55.719 70.1903 55.8127 69.5395 55.8127C68.7028 55.8127 67.8661 55.6254 67.2153 55.2508C66.5646 54.8762 66.0068 54.3144 65.6349 53.6588C65.2631 53.0033 65.0771 52.2542 65.0771 51.4113C65.0771 50.5685 65.2631 49.8194 65.6349 49.1639C66.0068 48.5083 66.4716 47.9465 67.1223 47.5719C67.7731 47.1973 68.5169 47.01 69.2606 47.01C70.0043 47.01 70.748 47.1973 71.3988 47.5719C72.0496 47.9465 72.5144 48.5083 72.8862 49.1639C73.2581 49.8194 73.4441 50.5685 73.4441 51.4113L73.3511 51.7859ZM67.1223 48.8829C66.5646 49.4448 66.2857 50.1003 66.1927 50.9431H72.2355C72.1425 50.1003 71.8636 49.3511 71.3058 48.8829C70.748 48.321 70.0043 48.0401 69.1676 48.0401C68.3309 48.0401 67.6801 48.321 67.1223 48.8829Z" fill="white"></path> <path d="M82.8334 55.2509C82.6475 55.4382 82.3685 55.6255 81.9967 55.7191C81.7178 55.8127 81.3459 55.9064 80.9741 55.9064C80.1374 55.9064 79.5796 55.7191 79.1148 55.2509C78.6499 54.7826 78.464 54.2208 78.464 53.378V48.1338H76.9766V47.1037H78.464V45.2308H79.5796V47.1037H82.1826V48.1338H79.5796V53.2843C79.5796 53.8462 79.6726 54.2208 79.9515 54.5017C80.2304 54.7826 80.6022 54.8763 81.067 54.8763C81.3459 54.8763 81.5319 54.8763 81.7178 54.7826C81.9037 54.689 82.0897 54.5954 82.2756 54.4081L82.8334 55.2509Z" fill="white"></path> <path d="M95.4753 55.4382C94.7316 55.1572 94.0808 54.7826 93.709 54.3144L94.1738 53.3779C94.5457 53.7525 95.1035 54.1271 95.8472 54.408C96.4979 54.689 97.2417 54.7826 97.9854 54.7826C99.008 54.7826 99.7517 54.5953 100.31 54.2208C100.774 53.8462 101.053 53.3779 101.053 52.7224C101.053 52.2542 100.96 51.8796 100.681 51.5987C100.403 51.3177 100.031 51.1305 99.6588 50.9432C99.2869 50.7559 98.7291 50.6622 97.9854 50.4749C97.1487 50.2876 96.405 50.0067 95.9401 49.8194C95.4753 49.6321 95.0105 49.3512 94.6386 48.883C94.2668 48.4147 94.0808 47.9465 94.0808 47.1973C94.0808 46.6355 94.2667 46.0736 94.5456 45.6054C94.8245 45.1371 95.2894 44.7626 95.9401 44.4816C96.5909 44.2007 97.3346 44.0134 98.2643 44.0134C98.915 44.0134 99.5658 44.107 100.217 44.2943C100.867 44.4816 101.425 44.7626 101.797 45.0435L101.425 45.98C100.96 45.699 100.403 45.4181 99.9377 45.2308C99.3799 45.0435 98.8221 44.9499 98.3573 44.9499C97.3346 44.9499 96.5909 45.1371 96.1261 45.5117C95.6612 45.8863 95.3824 46.4482 95.3824 47.0101C95.3824 47.4783 95.4753 47.8529 95.7542 48.1338C96.0331 48.4147 96.405 48.602 96.7768 48.7893C97.1487 48.9766 97.7995 49.0703 98.4502 49.2575C99.2869 49.4448 99.9377 49.6321 100.495 49.9131C101.053 50.194 101.425 50.3813 101.797 50.8495C102.169 51.2241 102.355 51.786 102.355 52.5351C102.355 53.097 102.169 53.6589 101.89 54.1271C101.611 54.5953 101.146 54.9699 100.495 55.2509C99.8447 55.5318 99.101 55.6254 98.1713 55.6254C97.0557 55.9064 96.219 55.7191 95.4753 55.4382Z" fill="white"></path> <path d="M114.627 51.7859H107.469C107.562 52.7224 107.841 53.3779 108.492 53.9398C109.142 54.5016 109.886 54.7826 110.816 54.7826C111.374 54.7826 111.839 54.6889 112.303 54.5017C112.768 54.3144 113.14 54.0334 113.419 53.6588L114.07 54.408C113.698 54.8762 113.233 55.2508 112.675 55.4381C112.117 55.719 111.467 55.8127 110.816 55.8127C109.979 55.8127 109.142 55.6254 108.492 55.2508C107.841 54.8762 107.283 54.3144 106.911 53.6588C106.539 53.0033 106.354 52.2542 106.354 51.4113C106.354 50.5685 106.539 49.8194 106.911 49.1639C107.283 48.5083 107.748 47.9465 108.399 47.5719C109.05 47.1973 109.793 47.01 110.537 47.01C111.281 47.01 112.024 47.1973 112.675 47.5719C113.326 47.9465 113.791 48.5083 114.163 49.1639C114.535 49.8194 114.72 50.5685 114.72 51.4113L114.627 51.7859ZM108.399 48.8829C107.841 49.4448 107.562 50.1003 107.469 50.9431H113.512C113.419 50.1003 113.14 49.3511 112.582 48.8829C112.024 48.321 111.281 48.0401 110.444 48.0401C109.607 48.0401 108.957 48.321 108.399 48.8829Z" fill="white"></path> <path d="M121.971 47.4782C122.528 47.1973 123.179 47.01 123.923 47.01V48.1338H123.644C122.714 48.1338 122.064 48.4147 121.506 48.9766C120.948 49.5384 120.762 50.2876 120.762 51.3177V55.719H119.646V47.1037H120.762V48.7893C121.041 48.2274 121.413 47.7592 121.971 47.4782Z" fill="white"></path> <path d="M136.287 47.1037L132.475 55.7191H131.267L127.455 47.1037H128.664L131.917 54.5017L135.171 47.1037H136.287Z" fill="white"></path> <path d="M140.471 44.9498C140.285 44.7625 140.192 44.5752 140.192 44.3879C140.192 44.2007 140.285 44.0134 140.471 43.8261C140.657 43.6388 140.843 43.5451 141.029 43.5451C141.308 43.5451 141.494 43.6388 141.587 43.8261C141.773 44.0134 141.866 44.2007 141.866 44.3879C141.866 44.6689 141.773 44.8562 141.587 44.9498C141.401 45.0435 141.215 45.2308 141.029 45.2308C140.843 45.2308 140.657 45.1371 140.471 44.9498ZM140.471 47.1037H141.587V55.719H140.471V47.1037Z" fill="white"></path> <path d="M148.839 55.2508C148.189 54.8762 147.631 54.3144 147.259 53.6588C146.887 53.0033 146.701 52.2542 146.701 51.4113C146.701 50.5685 146.887 49.8194 147.259 49.1639C147.631 48.5083 148.189 47.9465 148.839 47.5719C149.49 47.1973 150.234 47.01 151.071 47.01C151.814 47.01 152.465 47.1973 153.023 47.4782C153.581 47.7592 154.045 48.2274 154.417 48.7893L153.581 49.3511C153.302 48.8829 152.93 48.602 152.465 48.4147C152 48.2274 151.535 48.1338 151.071 48.1338C150.42 48.1338 149.862 48.2274 149.397 48.5083C148.932 48.7893 148.56 49.1639 148.282 49.7257C148.003 50.194 147.91 50.8495 147.91 51.505C147.91 52.1605 148.003 52.7224 148.282 53.2843C148.56 53.7525 148.932 54.2207 149.397 54.5017C149.862 54.7826 150.42 54.8762 151.071 54.8762C151.535 54.8762 152.093 54.7826 152.465 54.5953C152.93 54.408 153.302 54.0334 153.581 53.6588L154.417 54.2207C154.045 54.7826 153.581 55.1572 153.023 55.5317C152.465 55.8127 151.814 56 151.071 56C150.234 55.8127 149.49 55.6254 148.839 55.2508Z" fill="white"></path> <path d="M166.688 51.7859H159.53C159.623 52.7224 159.902 53.3779 160.552 53.9398C161.203 54.5016 161.947 54.7826 162.876 54.7826C163.434 54.7826 163.899 54.6889 164.364 54.5017C164.829 54.3144 165.201 54.0334 165.479 53.6588L166.13 54.408C165.758 54.8762 165.294 55.2508 164.736 55.4381C164.178 55.719 163.527 55.8127 162.876 55.8127C162.04 55.8127 161.203 55.6254 160.552 55.2508C159.902 54.8762 159.344 54.3144 158.972 53.6588C158.6 53.0033 158.414 52.2542 158.414 51.4113C158.414 50.5685 158.6 49.8194 158.972 49.1639C159.344 48.5083 159.809 47.9465 160.459 47.5719C161.11 47.1973 161.854 47.01 162.598 47.01C163.341 47.01 164.085 47.1973 164.736 47.5719C165.386 47.9465 165.851 48.5083 166.223 49.1639C166.595 49.8194 166.781 50.5685 166.781 51.4113L166.688 51.7859ZM160.459 48.8829C159.902 49.4448 159.623 50.1003 159.53 50.9431H165.572C165.479 50.1003 165.201 49.3511 164.643 48.8829C164.085 48.321 163.341 48.0401 162.505 48.0401C161.668 48.0401 161.017 48.321 160.459 48.8829Z" fill="white"></path> <path d="M186.489 45.3244C187.325 45.9799 187.697 47.01 187.697 48.2274C187.697 49.4448 187.325 50.3813 186.489 51.1304C185.652 51.786 184.536 52.1605 183.049 52.1605H179.981V55.8127H178.772V44.2943H183.049C184.536 44.2943 185.652 44.5752 186.489 45.3244ZM185.652 50.2876C186.21 49.8194 186.582 49.0702 186.582 48.1338C186.582 47.1973 186.303 46.4482 185.652 45.9799C185.094 45.5117 184.164 45.2308 183.049 45.2308H179.981V50.9431H183.049C184.164 51.0368 185.094 50.8495 185.652 50.2876Z" fill="white"></path> <path d="M194.856 47.4782C195.414 47.1973 196.065 47.01 196.809 47.01V48.1338H196.53C195.6 48.1338 194.949 48.4147 194.392 48.9766C193.834 49.5384 193.648 50.2876 193.648 51.3177V55.719H192.532V47.1037H193.648V48.7893C193.927 48.2274 194.299 47.7592 194.856 47.4782Z" fill="white"></path> <path d="M202.758 55.2508C202.108 54.8762 201.55 54.3144 201.178 53.6588C200.806 53.0033 200.62 52.2542 200.62 51.4113C200.62 50.5685 200.806 49.8194 201.178 49.1639C201.55 48.5083 202.108 47.9465 202.758 47.5719C203.409 47.1973 204.153 47.01 204.99 47.01C205.826 47.01 206.57 47.1973 207.221 47.5719C207.871 47.9465 208.429 48.5083 208.801 49.1639C209.173 49.8194 209.359 50.5685 209.359 51.4113C209.359 52.2542 209.173 53.0033 208.801 53.6588C208.429 54.3144 207.871 54.8762 207.221 55.2508C206.57 55.6254 205.826 55.8127 204.99 55.8127C204.153 55.8127 203.409 55.6254 202.758 55.2508ZM206.663 54.408C207.128 54.1271 207.5 53.7525 207.778 53.1906C208.057 52.7224 208.15 52.0669 208.15 51.4113C208.15 50.7558 208.057 50.194 207.778 49.6321C207.5 49.1639 207.128 48.6956 206.663 48.4147C206.198 48.1338 205.64 48.0401 204.99 48.0401C204.339 48.0401 203.874 48.1338 203.316 48.4147C202.851 48.6956 202.479 49.0702 202.201 49.6321C201.922 50.1003 201.829 50.7558 201.829 51.4113C201.829 52.0669 201.922 52.6287 202.201 53.1906C202.479 53.6588 202.851 54.1271 203.316 54.408C203.781 54.6889 204.339 54.7826 204.99 54.7826C205.64 54.7826 206.198 54.6889 206.663 54.408Z" fill="white"></path> <path d="M221.351 47.1037L217.54 55.7191H216.331L212.52 47.1037H213.728L216.982 54.5017L220.236 47.1037H221.351Z" fill="white"></path> <path d="M225.535 44.9498C225.349 44.7625 225.256 44.5752 225.256 44.3879C225.256 44.2007 225.349 44.0134 225.535 43.8261C225.721 43.6388 225.907 43.5451 226.093 43.5451C226.371 43.5451 226.557 43.6388 226.65 43.8261C226.836 44.0134 226.929 44.2007 226.929 44.3879C226.929 44.6689 226.836 44.8562 226.65 44.9498C226.464 45.0435 226.278 45.2308 226.093 45.2308C225.907 45.2308 225.721 45.1371 225.535 44.9498ZM225.535 47.1037H226.65V55.719H225.535V47.1037Z" fill="white"></path> <path d="M240.409 43.5451V55.719H239.293V54.0334C238.921 54.5953 238.456 55.0635 237.899 55.3445C237.341 55.6254 236.69 55.8127 235.946 55.8127C235.11 55.8127 234.459 55.6254 233.715 55.2508C232.971 54.8762 232.507 54.3144 232.228 53.6589C231.856 53.0033 231.67 52.2542 231.67 51.4114C231.67 50.5685 231.856 49.8194 232.228 49.1639C232.6 48.5083 233.064 47.9465 233.715 47.5719C234.366 47.1973 235.11 47.01 235.946 47.01C236.597 47.01 237.248 47.1973 237.806 47.4782C238.363 47.7592 238.828 48.2274 239.2 48.7893V43.6388H240.409V43.5451ZM237.713 54.408C238.178 54.1271 238.549 53.7525 238.828 53.1906C239.107 52.7224 239.2 52.0669 239.2 51.4114C239.2 50.7558 239.107 50.194 238.828 49.6321C238.549 49.1639 238.178 48.6956 237.713 48.4147C237.248 48.1338 236.69 48.0401 236.132 48.0401C235.482 48.0401 235.017 48.1338 234.459 48.4147C233.994 48.6956 233.622 49.0702 233.343 49.6321C233.064 50.1003 232.971 50.7558 232.971 51.4114C232.971 52.0669 233.064 52.6287 233.343 53.1906C233.622 53.6589 233.994 54.1271 234.459 54.408C234.924 54.689 235.482 54.7826 236.132 54.7826C236.69 54.7826 237.248 54.689 237.713 54.408Z" fill="white"></path> <path d="M253.796 51.7859H246.638C246.731 52.7224 247.01 53.3779 247.661 53.9398C248.311 54.5016 249.055 54.7826 249.985 54.7826C250.543 54.7826 251.007 54.6889 251.472 54.5017C251.937 54.3144 252.309 54.0334 252.588 53.6588L253.239 54.408C252.867 54.8762 252.402 55.2508 251.844 55.4381C251.286 55.719 250.636 55.8127 249.985 55.8127C249.148 55.8127 248.311 55.6254 247.661 55.2508C247.01 54.8762 246.452 54.3144 246.08 53.6588C245.708 53.0033 245.522 52.2542 245.522 51.4113C245.522 50.5685 245.708 49.8194 246.08 49.1639C246.452 48.5083 246.917 47.9465 247.568 47.5719C248.218 47.1973 248.962 47.01 249.706 47.01C250.45 47.01 251.193 47.1973 251.844 47.5719C252.495 47.9465 252.96 48.5083 253.332 49.1639C253.703 49.8194 253.889 50.5685 253.889 51.4113L253.796 51.7859ZM247.568 48.8829C247.01 49.4448 246.731 50.1003 246.638 50.9431H252.681C252.588 50.1003 252.309 49.3511 251.751 48.8829C251.193 48.321 250.45 48.0401 249.613 48.0401C248.776 48.0401 248.126 48.321 247.568 48.8829Z" fill="white"></path> <path d="M261.049 47.4782C261.607 47.1973 262.257 47.01 263.001 47.01V48.1338H262.722C261.792 48.1338 261.142 48.4147 260.584 48.9766C260.026 49.5384 259.84 50.2876 259.84 51.3177V55.719H258.725V47.1037H259.84V48.7893C260.119 48.2274 260.584 47.7592 261.049 47.4782Z" fill="white"></path> <path d="M3.71863 29.7793C2.13821 29.311 0.929657 28.7492 0 28L1.58043 25.0033C2.51009 25.6589 3.62568 26.2207 4.9272 26.5953C6.22872 26.9699 7.62319 27.1572 8.92471 27.1572C12.2715 27.1572 13.9449 26.2207 13.9449 24.2542C13.9449 23.5987 13.7589 23.1304 13.2941 22.7559C12.8293 22.3813 12.2715 22.1003 11.6207 21.913C10.97 21.7258 9.94732 21.5385 8.73877 21.3512C7.06539 21.0702 5.6709 20.7893 4.55531 20.4147C3.43973 20.0401 2.60303 19.4783 1.76634 18.6355C1.02262 17.7926 0.650771 16.6689 0.650771 15.1706C0.650771 13.2977 1.48747 11.7057 3.06789 10.5819C4.6483 9.45819 6.78651 8.80267 9.48251 8.80267C10.877 8.80267 12.2715 8.98996 13.666 9.36455C15.0605 9.73913 16.176 10.2074 17.1057 10.7692L15.4323 13.8595C13.666 12.7358 11.7137 12.1739 9.38954 12.1739C7.80912 12.1739 6.5076 12.4548 5.67091 13.0167C4.83422 13.5786 4.3694 14.2341 4.3694 15.1706C4.3694 15.8261 4.64828 16.388 5.11311 16.8562C5.57794 17.2308 6.13573 17.5117 6.87946 17.699C7.62318 17.8863 8.55285 18.0736 9.85437 18.3545C11.5278 18.6355 12.9222 18.9164 13.9449 19.291C14.9675 19.6656 15.8971 20.2274 16.6409 20.9766C17.3846 21.8194 17.7565 22.9431 17.7565 24.3478C17.7565 26.3144 16.9198 27.8127 15.3393 28.9365C13.666 30.0602 11.5278 30.6221 8.64583 30.6221C6.97244 30.5284 5.29904 30.2475 3.71863 29.7793Z" fill="white"></path> <path d="M22.6832 4.30769C22.2183 3.83947 21.9395 3.27759 21.9395 2.52843C21.9395 1.87291 22.2183 1.21739 22.6832 0.749164C23.148 0.280937 23.7988 0 24.5425 0C25.2862 0 25.937 0.280937 26.4018 0.655519C26.8666 1.12375 27.1455 1.68562 27.1455 2.43478C27.1455 3.18395 26.8666 3.74582 26.4018 4.21405C25.937 4.68228 25.2862 4.96321 24.5425 4.96321C23.7988 4.96321 23.148 4.77592 22.6832 4.30769ZM22.5902 9.08361H26.4018V30.2475H22.5902V9.08361Z" fill="white"></path> <path d="M34.2119 0.561859H38.0235V30.2475H34.2119V0.561859Z" fill="white"></path> <path d="M64.6116 9.08359L55.408 30.2475H51.5034L42.2998 9.08359H46.2973L53.5487 26.0334L60.893 9.08359H64.6116Z" fill="white"></path> <path d="M95.8474 9.83277C97.149 9.17725 97.7997 8.89631 102.355 9.0836V12.7358C102.169 12.7358 100.124 12.5485 99.752 12.5485C97.7068 12.5485 96.0334 13.204 94.9178 14.4214C93.7092 15.6388 93.1514 17.4181 93.1514 19.7592V30.3411H89.3398V9.0836H92.9655V12.6421C93.5233 11.4247 94.5459 10.4883 95.8474 9.83277Z" fill="white"></path> <path d="M127.269 29.7793C125.689 29.311 124.48 28.7492 123.551 28L125.131 25.0033C126.061 25.6589 127.176 26.2207 128.478 26.5953C129.779 26.9699 131.174 27.1572 132.476 27.1572C135.822 27.1572 137.496 26.2207 137.496 24.2542C137.496 23.5987 137.31 23.1304 136.845 22.7559C136.38 22.3813 135.822 22.1003 135.171 21.913C134.521 21.7258 133.498 21.5385 132.29 21.3512C130.616 21.0702 129.222 20.7893 128.106 20.4147C126.991 20.0401 126.154 19.4783 125.317 18.6355C124.573 17.7926 124.202 16.6689 124.202 15.1706C124.202 13.204 125.038 11.7057 126.619 10.5819C128.199 9.45819 130.337 8.80267 133.033 8.80267C134.428 8.80267 135.822 8.98996 137.217 9.36455C138.611 9.73913 139.727 10.2074 140.656 10.7692L138.983 13.7659C137.217 12.6421 135.264 12.0803 132.94 12.0803C131.36 12.0803 130.058 12.3612 129.222 12.9231C128.385 13.4849 127.92 14.1405 127.92 15.0769C127.92 15.7324 128.199 16.2943 128.664 16.7625C129.129 17.1371 129.687 17.4181 130.43 17.6054C131.174 17.7926 132.104 17.9799 133.405 18.2609C135.079 18.5418 136.473 18.8227 137.496 19.1973C138.518 19.5719 139.448 20.1338 140.192 20.8829C140.935 21.7258 141.307 22.7559 141.307 24.2542C141.307 26.2207 140.471 27.7191 138.89 28.8428C137.217 29.9666 135.079 30.5284 132.197 30.5284C130.523 30.5284 128.85 30.2475 127.269 29.7793Z" fill="white"></path> <path d="M161.759 27.2509V30.2475H145.862V8.98999H161.295V11.9866H149.488V17.98H159.993V20.9766H149.488V27.2509H161.759Z" fill="white"></path> <path d="M175.518 9.83277C176.82 9.17725 177.564 8.89631 182.026 9.0836V12.7358C181.84 12.7358 179.795 12.5485 179.423 12.5485C177.378 12.5485 175.704 13.204 174.589 14.4214C173.38 15.6388 172.822 17.4181 172.822 19.7592V30.3411H169.011V9.0836H172.636V12.6421C173.287 11.4247 174.217 10.4883 175.518 9.83277Z" fill="white"></path> <path d="M208.056 9.08359L198.852 30.2475H194.948L185.744 9.08359H189.742L196.993 26.0334L204.337 9.08359H208.056Z" fill="white"></path> <path d="M213.727 4.30769C213.262 3.83947 212.983 3.27759 212.983 2.52843C212.983 1.87291 213.262 1.21739 213.727 0.749164C214.192 0.280937 214.843 0 215.586 0C216.33 0 216.981 0.187291 217.446 0.655519C217.911 1.12375 218.189 1.68562 218.189 2.43478C218.189 3.18395 217.911 3.74582 217.446 4.21405C216.981 4.68228 216.33 4.96321 215.586 4.96321C214.843 4.96321 214.192 4.77592 213.727 4.30769ZM213.634 9.08361H217.446V30.2475H213.634V9.08361Z" fill="white"></path> <path d="M227.579 29.1238C225.906 28.1873 224.604 26.8763 223.675 25.2843C222.745 23.5987 222.28 21.8194 222.28 19.6656C222.28 17.5117 222.745 15.7324 223.675 14.0468C224.604 12.3612 225.906 11.1438 227.579 10.2074C229.253 9.2709 231.205 8.80267 233.343 8.80267C235.295 8.80267 236.969 9.17726 238.456 9.92642C239.944 10.6756 241.152 11.7993 241.896 13.2977L239.014 15.1706C238.363 14.1405 237.527 13.3913 236.597 12.9231C235.574 12.4548 234.552 12.1739 233.343 12.1739C231.949 12.1739 230.74 12.4548 229.625 13.1104C228.509 13.7659 227.672 14.6087 227.022 15.7324C226.371 16.8562 226.092 18.1672 226.092 19.6656C226.092 21.1639 226.371 22.4749 227.022 23.5987C227.672 24.7224 228.509 25.5652 229.625 26.2207C230.74 26.8763 231.949 27.1572 233.343 27.1572C234.552 27.1572 235.574 26.8763 236.597 26.408C237.62 25.9398 238.363 25.097 239.014 24.1605L241.896 26.0334C241.059 27.5318 239.944 28.6555 238.456 29.4047C236.969 30.1539 235.295 30.6221 233.343 30.6221C231.205 30.5284 229.253 30.0602 227.579 29.1238Z" fill="white"></path> <path d="M262.721 27.2509V30.2475H246.917V8.98999H262.349V11.9866H250.543V17.98H261.048V20.9766H250.543V27.2509H262.721Z" fill="white"></path> <path d="M84.2272 27.6254V30.2475H68.7949V8.89633H83.7624V11.5184H71.7698V18.0736H82.4608V20.6957H71.7698V27.6254H84.2272Z" fill="#2BA4FB"></path> <path d="M74.1867 11.5184H67.0283V18.0736H74.1867V11.5184Z" fill="#1C008A"></path> <path d="M74.2804 20.6957H67.1221V27.6254H74.2804V20.6957Z" fill="#1C008A"></path> <path d="M151.627 11.9866H144.469V17.9799H151.627V11.9866Z" fill="#1C008A"></path> <path d="M151.627 20.9766H144.469V27.2508H151.627V20.9766Z" fill="#1C008A"></path> <path d="M252.588 11.9866H245.43V17.9799H252.588V11.9866Z" fill="#1C008A"></path> <path d="M252.588 20.9766H245.43V27.2508H252.588V20.9766Z" fill="#1C008A"></path> </svg> 